<svg xmlns="http://www.w3.org/2000/svg" viewBox="0 0 800 440" fill="none">
  <rect width="800" height="440" fill="url(#g2)"/>
  <defs>
    <linearGradient id="g2" x1="0" y1="0" x2="800" y2="440" gradientUnits="userSpaceOnUse">
      <stop offset="0%" stop-color="#7c3aed"/>
      <stop offset="100%" stop-color="#4f46e5"/>
    </linearGradient>
  </defs>
  <!-- Central brain/node -->
  <circle cx="400" cy="210" r="52" fill="white" fill-opacity="0.18"/>
  <circle cx="400" cy="210" r="36" fill="white" fill-opacity="0.22"/>
  <!-- Brain icon lines -->
  <path d="M382 200 Q390 188 400 196 Q410 188 418 200 Q426 212 418 222 Q410 232 400 226 Q390 232 382 222 Q374 212 382 200Z" stroke="white" stroke-opacity="0.9" stroke-width="2.5" fill="none"/>
  <line x1="400" y1="196" x2="400" y2="226" stroke="white" stroke-opacity="0.6" stroke-width="1.5"/>
  <!-- Satellite nodes -->
  <circle cx="200" cy="140" r="28" fill="white" fill-opacity="0.15"/>
  <circle cx="600" cy="140" r="28" fill="white" fill-opacity="0.15"/>
  <circle cx="180" cy="290" r="28" fill="white" fill-opacity="0.15"/>
  <circle cx="620" cy="290" r="28" fill="white" fill-opacity="0.15"/>
  <circle cx="400" cy="340" r="28" fill="white" fill-opacity="0.15"/>
  <!-- Doc icons in nodes -->
  <rect x="188" y="128" width="24" height="24" rx="4" fill="white" fill-opacity="0.5"/>
  <line x1="193" y1="136" x2="207" y2="136" stroke="#7c3aed" stroke-width="2"/>
  <line x1="193" y1="141" x2="207" y2="141" stroke="#7c3aed" stroke-width="2"/>
  <line x1="193" y1="146" x2="202" y2="146" stroke="#7c3aed" stroke-width="2"/>
  <rect x="588" y="128" width="24" height="24" rx="4" fill="white" fill-opacity="0.5"/>
  <line x1="593" y1="136" x2="607" y2="136" stroke="#4f46e5" stroke-width="2"/>
  <line x1="593" y1="141" x2="607" y2="141" stroke="#4f46e5" stroke-width="2"/>
  <line x1="593" y1="146" x2="602" y2="146" stroke="#4f46e5" stroke-width="2"/>
  <!-- Connection lines -->
  <line x1="228" y1="155" x2="362" y2="196" stroke="white" stroke-opacity="0.3" stroke-width="1.5" stroke-dasharray="6 4"/>
  <line x1="572" y1="155" x2="438" y2="196" stroke="white" stroke-opacity="0.3" stroke-width="1.5" stroke-dasharray="6 4"/>
  <line x1="206" y1="278" x2="362" y2="224" stroke="white" stroke-opacity="0.3" stroke-width="1.5" stroke-dasharray="6 4"/>
  <line x1="594" y1="278" x2="438" y2="224" stroke="white" stroke-opacity="0.3" stroke-width="1.5" stroke-dasharray="6 4"/>
  <line x1="400" y1="312" x2="400" y2="262" stroke="white" stroke-opacity="0.3" stroke-width="1.5" stroke-dasharray="6 4"/>
  <!-- Floating dots -->
  <circle cx="300" cy="100" r="4" fill="white" fill-opacity="0.4"/>
  <circle cx="500" cy="90" r="3" fill="white" fill-opacity="0.3"/>
  <circle cx="150" cy="210" r="3" fill="white" fill-opacity="0.3"/>
  <circle cx="650" cy="220" r="4" fill="white" fill-opacity="0.4"/>
  <!-- Label -->
  <text x="400" y="410" font-family="monospace" font-size="18" fill="white" fill-opacity="0.7" text-anchor="middle" font-weight="bold">Enterprise RAG Agent</text>
</svg>
